<svg xmlns="http://www.w3.org/2000/svg" width="187" height="38" viewBox="0 0 187 38">
  <g fill="none" fill-rule="evenodd">
    <g fill="#02161E" transform="translate(45 6)">
      <path fill-rule="nonzero" d="M13.7098856,4.85000038 C9.40212767,4.85000038 5.90999985,8.40933653 5.90999985,12.8000002 C5.90999985,17.1906638 9.40212767,20.75 13.7098856,20.75 L13.8301143,20.75 C18.1378723,20.75 21.6300001,17.1906638 21.6300001,12.8000002 C21.6300001,8.40933653 18.1378723,4.85000038 13.8301143,4.85000038 L13.7098856,4.85000038 Z M13.71,0 L13.8302305,0 C20.8994754,-3.10862447e-15 26.6302307,5.73075529 26.6302307,12.8000002 C26.6302307,19.8692451 20.8994754,25.6000004 13.8302305,25.6000004 L13.71,25.6000004 C6.64075513,25.6000004 0.909999847,19.8692451 0.909999847,12.8000002 C0.909999847,5.73075529 6.64075513,1.33226763e-15 13.71,0 Z"/>
      <path d="M52.025703 11.014L49.1000433 11.014 49.1000433 6.87 52.025703 6.87 52.025703 1.32 56.896698 1.32 56.896698 6.87 61.0878381 6.87 61.0878381 11.014 56.896698 11.014 56.896698 18.044C56.896698 18.4633354 56.9499594 18.8429008 57.0268391 19.2095 57.1165049 19.6370697 57.676437 20.5368537 58.3001438 20.8080389 58.7159484 20.9888291 59.3979475 21.0609108 60.3461412 21.0242841L60.3461412 25.0600845C59.6328027 25.2173615 58.8796088 25.296 58.0865594 25.296 57.16937 25.296 56.3451513 25.1541681 55.6138787 24.8705 54.8826061 24.5868319 54.2690899 24.1983358 53.7733119 23.705 52.6082334 22.5949944 52.025703 21.0163436 52.025703 18.969L52.025703 11.014zM47.9013499 14.2999992C47.7732112 13.4343047 47.5826546 12.691638 47.3296802 12.0719992 46.8462966 10.8879933 46.2889421 9.87050349 45.433725 9.01949924 44.5785079 8.16849498 43.6787575 7.50250164 42.5012847 7.02149924 41.3238118 6.54049683 40.028611 6.29999924 38.6156436 6.29999924 37.2026761 6.29999924 35.9074754 6.54049683 34.7300025 7.02149924 33.5525296 7.50250164 32.5361998 8.16849498 31.6809827 9.01949924 30.8257655 9.87050349 30.1564752 10.8879933 29.6730916 12.0719992 29.189708 13.2560052 28.9480198 14.5509922 28.9480198 15.9569992 28.9480198 17.3630063 29.189708 18.6579933 29.6730916 19.8419992 30.1564752 21.0260052 30.8257655 22.043495 31.6809827 22.8944992 32.5361998 23.7455035 33.5525296 24.4114968 34.7300025 24.8924992 35.9074754 25.3735016 37.2026761 25.6139992 38.6156436 25.6139992 40.028611 25.6139992 41.3238118 25.3735016 42.5012847 24.8924992 43.6787575 24.4114968 44.6087204 23.7071636 45.4639376 22.8561593 46.3191547 22.0051551 47.0219809 21.000412 47.5053645 19.8164061 47.6806615 19.3870314 47.8146301 18.8815625 47.9072704 18.2999992L42.8518809 18.2999992C42.7895006 18.4679669 42.7152324 18.6349593 42.6268227 18.7993317 42.1058131 19.7679992 40.8374736 21.1369992 38.6156436 21.1369992 37.9711321 21.1369992 37.3638131 21.0198337 36.7936683 20.7854992 36.2235236 20.5511647 35.7153587 20.2120015 35.2691584 19.7679992 34.8229582 19.323997 34.4697216 18.7813358 34.2094381 18.1399992 33.9491546 17.4986627 33.8190149 16.7710033 33.8190149 15.9569992 33.8190149 15.1429952 33.9491546 14.4153358 34.2094381 13.7739992 34.4697216 13.1326627 34.8229582 12.5900015 35.2691584 12.1459992 35.7153587 11.701997 36.2235236 11.3628337 36.7936683 11.1284992 37.3638131 10.8941647 37.9711321 10.7769992 38.6156436 10.7769992 41.4468374 10.7769992 42.6361801 12.8748184 42.8875423 13.7739992 42.9413488 13.9664776 42.9854163 14.1392818 43.0214486 14.2999992L47.9013499 14.2999992zM72.7839604 6C74.1969279 6 75.4921286 6.24049759 76.6696015 6.7215 77.8470744 7.20250241 78.8634041 7.86849575 79.7186213 8.7195 80.5738384 9.57050425 81.2431288 10.5879941 81.7265124 11.772 82.209896 12.9560059 82.4515842 14.250993 82.4515842 15.657 82.4515842 17.063007 82.209896 18.3579941 81.7265124 19.542 81.2431288 20.7260059 80.5738384 21.7434957 79.7186213 22.5945 78.8634041 23.4455043 77.8470744 24.1114976 76.6696015 24.5925 75.4921286 25.0735024 74.1969279 25.314 72.7839604 25.314 71.3709929 25.314 70.0757922 25.0735024 68.8983193 24.5925 67.7208464 24.1114976 66.7045167 23.4455043 65.8492995 22.5945 64.9940824 21.7434957 64.324792 20.7260059 63.8414084 19.542 63.3580248 18.3579941 63.1163366 17.063007 63.1163366 15.657 63.1163366 14.250993 63.3580248 12.9560059 63.8414084 11.772 64.324792 10.5879941 64.9940824 9.57050425 65.8492995 8.7195 66.7045167 7.86849575 67.7208464 7.20250241 68.8983193 6.7215 70.0757922 6.24049759 71.3709929 6 72.7839604 6zM72.7839604 20.837C73.403683 20.837 74.0048048 20.7198345 74.5873441 20.4855 75.1698833 20.2511655 75.6842453 19.9120022 76.1304455 19.468 76.5766458 19.0239978 76.9298824 18.4813365 77.1901658 17.84 77.4504493 17.1986635 77.5805891 16.4710041 77.5805891 15.657 77.5805891 14.8429959 77.4504493 14.1153365 77.1901658 13.474 76.9298824 12.8326635 76.5766458 12.2900022 76.1304455 11.846 75.6842453 11.4019978 75.1698833 11.0628345 74.5873441 10.8285 74.0048048 10.5941655 73.403683 10.477 72.7839604 10.477 72.1394489 10.477 71.5321299 10.5941655 70.9619851 10.8285 70.3918404 11.0628345 69.8836755 11.4019978 69.4374752 11.846 68.991275 12.2900022 68.6380384 12.8326635 68.377755 13.474 68.1174715 14.1153365 67.9873317 14.8429959 67.9873317 15.657 67.9873317 16.4710041 68.1174715 17.1986635 68.377755 17.84 68.6380384 18.4813365 68.991275 19.0239978 69.4374752 19.468 69.8836755 19.9120022 70.3918404 20.2511655 70.9619851 20.4855 71.5321299 20.7198345 72.1394489 20.837 72.7839604 20.837zM85.4714604.31000042L90.3424554.31000042 90.3424554 9C90.7886557 8.23532951 91.4827346 7.63466938 92.4247129 7.092 93.3666912 6.54933062 94.5317521 6.278 95.9199307 6.278 97.0850091 6.278 98.1942959 6.5184976 99.2478243 6.9995 100.301353 7.48050241 101.230923 8.14649575 102.036562 8.9975 102.842201 9.84850426 103.480506 10.8659941 103.951495 12.05 104.422484 13.2340059 104.657975 14.528993 104.657975 15.935 104.657975 17.341007 104.422484 18.6359941 103.951495 19.82 103.480506 21.0040059 102.842201 22.0214957 102.036562 22.8725 101.230923 23.7235043 100.301353 24.3894976 99.2478243 24.8705 98.1942959 25.3515024 97.0850091 25.592 95.9199307 25.592 94.5317521 25.592 93.3666912 25.3206694 92.4247129 24.778 91.4827346 24.2353306 90.7886557 23.5816705 90.3424554 22.817L90.0449901 22.817 90.0449901 25 85.4714604 25 85.4714604.31000042zM94.9159851 21.115C95.5604966 21.115 96.1740128 20.9916679 96.756552 20.745 97.3390912 20.4983321 97.8534532 20.1530022 98.2996535 19.709 98.7458537 19.2649978 99.1052874 18.7223365 99.3779653 18.081 99.6506433 17.4396635 99.7869802 16.7243373 99.7869802 15.935 99.7869802 15.1456627 99.6506433 14.4303365 99.3779653 13.789 99.1052874 13.1476635 98.7458537 12.6050022 98.2996535 12.161 97.8534532 11.7169978 97.3390912 11.3716679 96.756552 11.125 96.1740128 10.8783321 95.5604966 10.755 94.9159851 10.755 94.2714737 10.755 93.6579575 10.8721655 93.0754183 11.1065 92.4928791 11.3408345 91.9785171 11.6799978 91.5323168 12.124 91.0861166 12.5680022 90.7266829 13.1106635 90.454005 13.752 90.181327 14.3933365 90.0449901 15.1209959 90.0449901 15.935 90.0449901 16.7490041 90.181327 17.4766635 90.454005 18.118 90.7266829 18.7593365 91.0861166 19.3019978 91.5323168 19.746 91.9785171 20.1900022 92.4928791 20.5291655 93.0754183 20.7635 93.6579575 20.9978345 94.2714737 21.115 94.9159851 21.115zM128.455203 6.87L133.028733 6.87 133.326198 10.3582032C133.402308 9.88413876 133.581519 9.39664189 133.863829 8.89571259 134.287295 8.14431865 135.005635 7.47433469 135.46423 7.203 135.922825 6.93166531 136.418596 6.72200074 136.951557 6.574 137.484518 6.42599926 137.924335 6.35932922 138.444902 6.35932922 139.106671 6.35932922 139.74264 6.48280739 140.352812 6.72976372L140.352812 11.2139587C139.400154 10.9190063 138.442565 10.8466661 137.746056 10.8867532 137.077206 10.9252484 136.474376 11.0694987 135.92902 11.3285 135.383664 11.5875013 134.918879 11.951331 134.534651 12.42 134.150423 12.888669 133.852961 13.4374969 133.642255 14.0665 133.431549 14.6955031 133.326198 15.3799963 133.326198 16.12L133.326198 25 128.455203 25 128.455203 6.87zM124.84314 20C124.020612 21.8571721 122.934235 23.2180387 121.584009 24.0825998 120.033085 25.0756694 118.466344 25.592 116.408865 25.592 115.020687 25.592 113.73788 25.3515024 112.560407 24.8705 111.382934 24.3894976 110.360407 23.7173377 109.492796 22.854 108.625184 21.9906624 107.949697 20.9731725 107.466313 19.8015 106.982929 18.6298275 106.741241 17.341007 106.741241 15.935 106.741241 14.6276601 106.976732 13.3881725 107.447722 12.2165 107.918711 11.0448275 108.575607 10.021171 109.418429 9.1455 110.261252 8.26982896 111.25899 7.57300259 112.411674 7.055 113.564358 6.53699741 114.834771 6.278 116.222949 6.278 117.685494 6.278 118.986892 6.5184976 120.127182 6.9995 121.267471 7.48050241 122.22183 8.14649575 122.990286 8.9975 123.758742 9.84850426 124.341272 10.8536609 124.737895 12.013 125.134517 13.1723391 125.30772 14.3453795 125.332825 15.787 125.340106 16.2050406 125.311381 16.6243739 125.246652 17.045L111.53787 17.045C111.637026 17.7850037 111.925121 19.3470795 112.95067 20.2778633 113.719126 20.9753101 114.493096 21.6256915 116.494836 21.6256915 118.641029 21.6256915 119.757751 20.1431628 119.893537 20L124.84314 20zM120.610563 13.604C120.585774 13.2833317 120.480423 12.9256686 120.294506 12.531 120.108589 12.1363314 119.835916 11.7663351 119.476476 11.421 119.117037 11.0756649 118.670844 10.7920011 118.137882 10.57 117.604921 10.3479989 116.966616 10.237 116.222949 10.237 115.181815 10.237 114.26464 10.532997 113.471395 11.125 112.67815 11.717003 112.120408 12.543328 111.798152 13.604L120.610563 13.604z"/>
    </g>
    <path fill="#08B8FB" fill-rule="nonzero" d="M9.41704586,34.2398084 L13.0799556,30.5768987 C14.8555225,31.4866875 16.867816,32 19,32 C26.1797017,32 32,26.1797017 32,19 C32,16.867816 31.4866875,14.8555225 30.5768987,13.0799556 L34.2398084,9.41704586 C35.9883661,12.1919441 37,15.4778322 37,19 C37,28.9411255 28.9411255,37 19,37 C15.4778322,37 12.1919441,35.9883661 9.41704586,34.2398084 L9.41704586,34.2398084 Z M3.76019161,28.5829541 C2.0116339,25.8080559 1,22.5221678 1,19 C1,9.0588745 9.0588745,1 19,1 C22.5221678,1 25.8080559,2.0116339 28.5829541,3.76019161 L24.9200444,7.42310134 C23.1444775,6.51331246 21.132184,6 19,6 C11.8202983,6 6,11.8202983 6,19 C6,21.132184 6.51331246,23.1444775 7.42310134,24.9200444 L3.76019161,28.5829541 Z"/>
    <circle cx="19" cy="19" r="6" fill="#08B8FB" fill-rule="nonzero"/>
  </g>
</svg>
