<svg xmlns="http://www.w3.org/2000/svg" width="187" height="38" viewBox="0 0 187 38">
  <g fill="#FFF" fill-rule="evenodd">
    <path fill-rule="nonzero" d="M58.7098856,10.8500004 C54.4021277,10.8500004 50.9099998,14.4093365 50.9099998,18.8000002 C50.9099998,23.1906638 54.4021277,26.75 58.7098856,26.75 L58.8301143,26.75 C63.1378723,26.75 66.6300001,23.1906638 66.6300001,18.8000002 C66.6300001,14.4093365 63.1378723,10.8500004 58.8301143,10.8500004 L58.7098856,10.8500004 Z M58.71,6 L58.8302305,6 C65.8994754,6 71.6302307,11.7307553 71.6302307,18.8000002 C71.6302307,25.8692451 65.8994754,31.6000004 58.8302305,31.6000004 L58.71,31.6000004 C51.6407551,31.6000004 45.9099998,25.8692451 45.9099998,18.8000002 C45.9099998,11.7307553 51.6407551,6 58.71,6 Z"/>
    <path d="M97.025703 17.014L94.1000433 17.014 94.1000433 12.87 97.025703 12.87 97.025703 7.32 101.896698 7.32 101.896698 12.87 106.087838 12.87 106.087838 17.014 101.896698 17.014 101.896698 24.044C101.896698 24.4633354 101.949959 24.8429008 102.026839 25.2095 102.116505 25.6370697 102.676437 26.5368537 103.300144 26.8080389 103.715948 26.9888291 104.397948 27.0609108 105.346141 27.0242841L105.346141 31.0600845C104.632803 31.2173615 103.879609 31.296 103.086559 31.296 102.16937 31.296 101.345151 31.1541681 100.613879 30.8705 99.8826061 30.5868319 99.2690899 30.1983358 98.7733119 29.705 97.6082334 28.5949944 97.025703 27.0163436 97.025703 24.969L97.025703 17.014zM92.9013499 20.2999992C92.7732112 19.4343047 92.5826546 18.691638 92.3296802 18.0719992 91.8462966 16.8879933 91.2889421 15.8705035 90.433725 15.0194992 89.5785079 14.168495 88.6787575 13.5025016 87.5012847 13.0214992 86.3238118 12.5404968 85.028611 12.2999992 83.6156436 12.2999992 82.2026761 12.2999992 80.9074754 12.5404968 79.7300025 13.0214992 78.5525296 13.5025016 77.5361998 14.168495 76.6809827 15.0194992 75.8257655 15.8705035 75.1564752 16.8879933 74.6730916 18.0719992 74.189708 19.2560052 73.9480198 20.5509922 73.9480198 21.9569992 73.9480198 23.3630063 74.189708 24.6579933 74.6730916 25.8419992 75.1564752 27.0260052 75.8257655 28.043495 76.6809827 28.8944992 77.5361998 29.7455035 78.5525296 30.4114968 79.7300025 30.8924992 80.9074754 31.3735016 82.2026761 31.6139992 83.6156436 31.6139992 85.028611 31.6139992 86.3238118 31.3735016 87.5012847 30.8924992 88.6787575 30.4114968 89.6087204 29.7071636 90.4639376 28.8561593 91.3191547 28.0051551 92.0219809 27.000412 92.5053645 25.8164061 92.6806615 25.3870314 92.8146301 24.8815625 92.9072704 24.2999992L87.8518809 24.2999992C87.7895006 24.4679669 87.7152324 24.6349593 87.6268227 24.7993317 87.1058131 25.7679992 85.8374736 27.1369992 83.6156436 27.1369992 82.9711321 27.1369992 82.3638131 27.0198337 81.7936683 26.7854992 81.2235236 26.5511647 80.7153587 26.2120015 80.2691584 25.7679992 79.8229582 25.323997 79.4697216 24.7813358 79.2094381 24.1399992 78.9491546 23.4986627 78.8190149 22.7710033 78.8190149 21.9569992 78.8190149 21.1429952 78.9491546 20.4153358 79.2094381 19.7739992 79.4697216 19.1326627 79.8229582 18.5900015 80.2691584 18.1459992 80.7153587 17.701997 81.2235236 17.3628337 81.7936683 17.1284992 82.3638131 16.8941647 82.9711321 16.7769992 83.6156436 16.7769992 86.4468374 16.7769992 87.6361801 18.8748184 87.8875423 19.7739992 87.9413488 19.9664776 87.9854163 20.1392818 88.0214486 20.2999992L92.9013499 20.2999992zM117.78396 12C119.196928 12 120.492129 12.2404976 121.669601 12.7215 122.847074 13.2025024 123.863404 13.8684957 124.718621 14.7195 125.573838 15.5705043 126.243129 16.5879941 126.726512 17.772 127.209896 18.9560059 127.451584 20.250993 127.451584 21.657 127.451584 23.063007 127.209896 24.3579941 126.726512 25.542 126.243129 26.7260059 125.573838 27.7434957 124.718621 28.5945 123.863404 29.4455043 122.847074 30.1114976 121.669601 30.5925 120.492129 31.0735024 119.196928 31.314 117.78396 31.314 116.370993 31.314 115.075792 31.0735024 113.898319 30.5925 112.720846 30.1114976 111.704517 29.4455043 110.8493 28.5945 109.994082 27.7434957 109.324792 26.7260059 108.841408 25.542 108.358025 24.3579941 108.116337 23.063007 108.116337 21.657 108.116337 20.250993 108.358025 18.9560059 108.841408 17.772 109.324792 16.5879941 109.994082 15.5705043 110.8493 14.7195 111.704517 13.8684957 112.720846 13.2025024 113.898319 12.7215 115.075792 12.2404976 116.370993 12 117.78396 12zM117.78396 26.837C118.403683 26.837 119.004805 26.7198345 119.587344 26.4855 120.169883 26.2511655 120.684245 25.9120022 121.130446 25.468 121.576646 25.0239978 121.929882 24.4813365 122.190166 23.84 122.450449 23.1986635 122.580589 22.4710041 122.580589 21.657 122.580589 20.8429959 122.450449 20.1153365 122.190166 19.474 121.929882 18.8326635 121.576646 18.2900022 121.130446 17.846 120.684245 17.4019978 120.169883 17.0628345 119.587344 16.8285 119.004805 16.5941655 118.403683 16.477 117.78396 16.477 117.139449 16.477 116.53213 16.5941655 115.961985 16.8285 115.39184 17.0628345 114.883675 17.4019978 114.437475 17.846 113.991275 18.2900022 113.638038 18.8326635 113.377755 19.474 113.117471 20.1153365 112.987332 20.8429959 112.987332 21.657 112.987332 22.4710041 113.117471 23.1986635 113.377755 23.84 113.638038 24.4813365 113.991275 25.0239978 114.437475 25.468 114.883675 25.9120022 115.39184 26.2511655 115.961985 26.4855 116.53213 26.7198345 117.139449 26.837 117.78396 26.837zM130.47146 6.31000042L135.342455 6.31000042 135.342455 15C135.788656 14.2353295 136.482735 13.6346694 137.424713 13.092 138.366691 12.5493306 139.531752 12.278 140.919931 12.278 142.085009 12.278 143.194296 12.5184976 144.247824 12.9995 145.301353 13.4805024 146.230923 14.1464957 147.036562 14.9975 147.842201 15.8485043 148.480506 16.8659941 148.951495 18.05 149.422484 19.2340059 149.657975 20.528993 149.657975 21.935 149.657975 23.341007 149.422484 24.6359941 148.951495 25.82 148.480506 27.0040059 147.842201 28.0214957 147.036562 28.8725 146.230923 29.7235043 145.301353 30.3894976 144.247824 30.8705 143.194296 31.3515024 142.085009 31.592 140.919931 31.592 139.531752 31.592 138.366691 31.3206694 137.424713 30.778 136.482735 30.2353306 135.788656 29.5816705 135.342455 28.817L135.04499 28.817 135.04499 31 130.47146 31 130.47146 6.31000042zM139.915985 27.115C140.560497 27.115 141.174013 26.9916679 141.756552 26.745 142.339091 26.4983321 142.853453 26.1530022 143.299653 25.709 143.745854 25.2649978 144.105287 24.7223365 144.377965 24.081 144.650643 23.4396635 144.78698 22.7243373 144.78698 21.935 144.78698 21.1456627 144.650643 20.4303365 144.377965 19.789 144.105287 19.1476635 143.745854 18.6050022 143.299653 18.161 142.853453 17.7169978 142.339091 17.3716679 141.756552 17.125 141.174013 16.8783321 140.560497 16.755 139.915985 16.755 139.271474 16.755 138.657958 16.8721655 138.075418 17.1065 137.492879 17.3408345 136.978517 17.6799978 136.532317 18.124 136.086117 18.5680022 135.726683 19.1106635 135.454005 19.752 135.181327 20.3933365 135.04499 21.1209959 135.04499 21.935 135.04499 22.7490041 135.181327 23.4766635 135.454005 24.118 135.726683 24.7593365 136.086117 25.3019978 136.532317 25.746 136.978517 26.1900022 137.492879 26.5291655 138.075418 26.7635 138.657958 26.9978345 139.271474 27.115 139.915985 27.115zM173.455203 12.87L178.028733 12.87 178.326198 16.3582032C178.402308 15.8841388 178.581519 15.3966419 178.863829 14.8957126 179.287295 14.1443186 180.005635 13.4743347 180.46423 13.203 180.922825 12.9316653 181.418596 12.7220007 181.951557 12.574 182.484518 12.4259993 182.924335 12.3593292 183.444902 12.3593292 184.106671 12.3593292 184.74264 12.4828074 185.352812 12.7297637L185.352812 17.2139587C184.400154 16.9190063 183.442565 16.8466661 182.746056 16.8867532 182.077206 16.9252484 181.474376 17.0694987 180.92902 17.3285 180.383664 17.5875013 179.918879 17.951331 179.534651 18.42 179.150423 18.888669 178.852961 19.4374969 178.642255 20.0665 178.431549 20.6955031 178.326198 21.3799963 178.326198 22.12L178.326198 31 173.455203 31 173.455203 12.87zM169.84314 26C169.020612 27.8571721 167.934235 29.2180387 166.584009 30.0825998 165.033085 31.0756694 163.466344 31.592 161.408865 31.592 160.020687 31.592 158.73788 31.3515024 157.560407 30.8705 156.382934 30.3894976 155.360407 29.7173377 154.492796 28.854 153.625184 27.9906624 152.949697 26.9731725 152.466313 25.8015 151.982929 24.6298275 151.741241 23.341007 151.741241 21.935 151.741241 20.6276601 151.976732 19.3881725 152.447722 18.2165 152.918711 17.0448275 153.575607 16.021171 154.418429 15.1455 155.261252 14.269829 156.25899 13.5730026 157.411674 13.055 158.564358 12.5369974 159.834771 12.278 161.222949 12.278 162.685494 12.278 163.986892 12.5184976 165.127182 12.9995 166.267471 13.4805024 167.22183 14.1464957 167.990286 14.9975 168.758742 15.8485043 169.341272 16.8536609 169.737895 18.013 170.134517 19.1723391 170.30772 20.3453795 170.332825 21.787 170.340106 22.2050406 170.311381 22.6243739 170.246652 23.045L156.53787 23.045C156.637026 23.7850037 156.925121 25.3470795 157.95067 26.2778633 158.719126 26.9753101 159.493096 27.6256915 161.494836 27.6256915 163.641029 27.6256915 164.757751 26.1431628 164.893537 26L169.84314 26zM165.610563 19.604C165.585774 19.2833317 165.480423 18.9256686 165.294506 18.531 165.108589 18.1363314 164.835916 17.7663351 164.476476 17.421 164.117037 17.0756649 163.670844 16.7920011 163.137882 16.57 162.604921 16.3479989 161.966616 16.237 161.222949 16.237 160.181815 16.237 159.26464 16.532997 158.471395 17.125 157.67815 17.717003 157.120408 18.543328 156.798152 19.604L165.610563 19.604z"/>
    <path fill-rule="nonzero" d="M9.41704586,34.2398084 L13.0799556,30.5768987 C14.8555225,31.4866875 16.867816,32 19,32 C26.1797017,32 32,26.1797017 32,19 C32,16.867816 31.4866875,14.8555225 30.5768987,13.0799556 L34.2398084,9.41704586 C35.9883661,12.1919441 37,15.4778322 37,19 C37,28.9411255 28.9411255,37 19,37 C15.4778322,37 12.1919441,35.9883661 9.41704586,34.2398084 L9.41704586,34.2398084 Z M3.76019161,28.5829541 C2.0116339,25.8080559 1,22.5221678 1,19 C1,9.0588745 9.0588745,1 19,1 C22.5221678,1 25.8080559,2.0116339 28.5829541,3.76019161 L24.9200444,7.42310134 C23.1444775,6.51331246 21.132184,6 19,6 C11.8202983,6 6,11.8202983 6,19 C6,21.132184 6.51331246,23.1444775 7.42310134,24.9200444 L3.76019161,28.5829541 Z"/>
    <circle cx="19" cy="19" r="6" fill-rule="nonzero"/>
  </g>
</svg>
