<svg xmlns="http://www.w3.org/2000/svg" width="36" height="36" viewBox="0 0 36 36">
  <g fill="#08B8FB">
    <path d="M8.41704586,33.2398084 L12.0799556,29.5768987 C13.8555225,30.4866875 15.867816,31 18,31 C25.1797017,31 31,25.1797017 31,18 C31,15.867816 30.4866875,13.8555225 29.5768987,12.0799556 L33.2398084,8.41704586 C34.9883661,11.1919441 36,14.4778322 36,18 C36,27.9411255 27.9411255,36 18,36 C14.4778322,36 11.1919441,34.9883661 8.41704586,33.2398084 L8.41704586,33.2398084 Z M2.76019161,27.5829541 C1.0116339,24.8080559 0,21.5221678 0,18 C0,8.0588745 8.0588745,0 18,0 C21.5221678,0 24.8080559,1.0116339 27.5829541,2.76019161 L23.9200444,6.42310134 C22.1444775,5.51331246 20.132184,5 18,5 C10.8202983,5 5,10.8202983 5,18 C5,20.132184 5.51331246,22.1444775 6.42310134,23.9200444 L2.76019161,27.5829541 Z"/>
    <circle cx="18" cy="18" r="6"/>
  </g>
</svg>
