<?xml version="1.0" encoding="UTF-8"?>
<svg width="24px" height="24px" viewBox="0 0 24 24" version="1.1" xmlns="http://www.w3.org/2000/svg" xmlns:xlink="http://www.w3.org/1999/xlink">
    <!-- Generator: Sketch 46.2 (44496) - http://www.bohemiancoding.com/sketch -->
    <title>ic_colorize_white_24px</title>
    <desc>Created with Sketch.</desc>
    <defs></defs>
    <g id="Symbols" stroke="none" stroke-width="1" fill="none" fill-rule="evenodd">
        <g id="ic_colorize_white_24px">
            <g id="Shape">
                <polygon points="0 0 24 0 24 24 0 24"></polygon>
                <path d="M20.71,5.63 L18.37,3.29 C17.98,2.9 17.35,2.9 16.96,3.29 L13.84,6.41 L11.91,4.5 L10.5,5.91 L11.92,7.33 L3,16.25 L3,21 L7.75,21 L16.67,12.08 L18.09,13.5 L19.5,12.09 L17.58,10.17 L20.7,7.05 C21.1,6.65 21.1,6.02 20.71,5.63 L20.71,5.63 Z M6.92,19 L5,17.08 L13.06,9.02 L14.98,10.94 L6.92,19 Z" fill="#FFFFFF" fill-rule="nonzero"></path>
            </g>
        </g>
    </g>
</svg>