<?xml version="1.0" encoding="UTF-8"?>
<svg width="24px" height="24px" viewBox="0 0 24 24" version="1.1" xmlns="http://www.w3.org/2000/svg" xmlns:xlink="http://www.w3.org/1999/xlink">
    <!-- Generator: Sketch 46.2 (44496) - http://www.bohemiancoding.com/sketch -->
    <title>ic_october_white_24px</title>
    <desc>Created with Sketch.</desc>
    <defs></defs>
    <g id="Symbols" stroke="none" stroke-width="1" fill="none" fill-rule="evenodd">
        <g id="ic_october_white_24px" fill-rule="nonzero" fill="#FFFFFF">
            <g id="Group" transform="translate(2.000000, 2.000000)">
                <path d="M4.48522021,18.3432069 L5.9360653,16.8923618 C7.12709181,17.5961412 8.51638277,18 10,18 C14.418278,18 18,14.418278 18,10 C18,8.51638277 17.5961412,7.12709181 16.8923618,5.9360653 L18.3432069,4.48522021 C19.3902465,6.06608623 20,7.96183533 20,10 C20,15.5228475 15.5228475,20 10,20 C7.96183533,20 6.06608623,19.3902465 4.48522021,18.3432069 Z M1.65679308,15.5147798 C0.609753528,13.9339138 0,12.0381647 0,10 C0,4.4771525 4.4771525,0 10,0 C12.0381647,0 13.9339138,0.609753528 15.5147798,1.65679308 L14.0639347,3.10763818 C12.8729082,2.40385879 11.4836172,2 10,2 C5.581722,2 2,5.581722 2,10 C2,11.4836172 2.40385879,12.8729082 3.10763818,14.0639347 L1.65679308,15.5147798 Z" id="Combined-Shape"></path>
                <circle id="Oval" cx="10" cy="10" r="3"></circle>
            </g>
        </g>
    </g>
</svg>