<svg xmlns="http://www.w3.org/2000/svg" width="24" height="24" viewBox="0 0 24 24">
  <path fill="#08B8FB" fill-rule="evenodd" d="M15.9269713,8 L16.8759713,6.576 C17.7769713,5.223 17.4119713,3.396 16.0599713,2.494 C15.5759713,2.171 15.0079713,2 14.4269713,2 L10.7809713,2 C9.6449713,2 8.6049713,2.641 8.0979713,3.658 L5.0979713,9.658 C4.3559713,11.14 4.9569713,12.942 6.4389713,13.683 C6.8549713,13.891 7.3149713,14 7.7809713,14 L7.9269713,14 L5.7379713,18.133 C5.0919713,19.354 5.5579713,20.867 6.7779713,21.513 C7.7139713,22.008 8.8599713,21.86 9.6409713,21.143 L18.2669713,13.208 C19.4849713,12.085 19.5639713,10.188 18.4419713,8.968 C17.8749713,8.351 17.0739713,8 16.2349713,8 L15.9269713,8 Z"/>
</svg>
