<svg xmlns="http://www.w3.org/2000/svg" xmlns:xlink="http://www.w3.org/1999/xlink" width="24" height="24" viewBox="0 0 24 24">
  <defs>
    <rect id="boost-level-3-a" width="12" height="18"/>
  </defs>
  <g fill="none" fill-rule="evenodd">
    <path fill="#08B8FB" d="M15.9269713,8 L16.8759713,6.576 C17.7769713,5.223 17.4119713,3.396 16.0599713,2.494 C15.5759713,2.171 15.0079713,2 14.4269713,2 L10.7809713,2 C9.6449713,2 8.6049713,2.641 8.0979713,3.658 L5.0979713,9.658 C4.3559713,11.14 4.9569713,12.942 6.4389713,13.683 C6.8549713,13.891 7.3149713,14 7.7809713,14 L7.9269713,14 L5.7379713,18.133 C5.0919713,19.354 5.5579713,20.867 6.7779713,21.513 C7.7139713,22.008 8.8599713,21.86 9.6409713,21.143 L18.2669713,13.208 C19.4849713,12.085 19.5639713,10.188 18.4419713,8.968 C17.8749713,8.351 17.0739713,8 16.2349713,8 L15.9269713,8 Z"/>
    <g transform="translate(6 3)">
      <mask id="boost-level-3-b" fill="#fff">
        <use xlink:href="#boost-level-3-a"/>
      </mask>
      <path fill="#F8FF00" d="M2.6249713,17.039 C2.3139713,17.325 1.8529713,17.384 1.4799713,17.188 C1.2439713,17.062 1.0699713,16.853 0.991971301,16.597 C0.912971301,16.342 0.937971301,16.072 1.0629713,15.835 L4.4179713,9.5 L1.7809713,9.5 C1.5489713,9.5 1.3169713,9.445 1.1099713,9.341 C0.751971301,9.163 0.483971301,8.854 0.356971301,8.474 C0.230971301,8.094 0.259971301,7.687 0.438971301,7.329 L3.4389713,1.329 C3.6949713,0.817 4.2089713,0.5 4.7809713,0.5 L8.4269713,0.5 C8.7129713,0.5 8.9899713,0.583 9.2279713,0.742 C9.8899713,1.183 10.0689713,2.082 9.6279713,2.744 L7.1239713,6.5 L10.2349713,6.5 C10.6529713,6.5 11.0559713,6.676 11.3389713,6.984 C11.8979713,7.592 11.8589713,8.543 11.2509713,9.104 L2.6249713,17.039 Z" mask="url(#boost-level-3-b)"/>
    </g>
  </g>
</svg>
