<svg xmlns="http://www.w3.org/2000/svg" xmlns:xlink="http://www.w3.org/1999/xlink" width="24" height="24" viewBox="0 0 24 24">
  <defs>
    <rect id="boost-level-1-light-a" width="12" height="5"/>
  </defs>
  <g fill="none" fill-rule="evenodd">
    <path fill="#FFF" d="M15.9269713,8 L16.8759713,6.576 C17.7769713,5.223 17.4119713,3.396 16.0599713,2.494 C15.5759713,2.171 15.0079713,2 14.4269713,2 L10.7809713,2 C9.6449713,2 8.6049713,2.641 8.0979713,3.658 L5.0979713,9.658 C4.3559713,11.14 4.9569713,12.942 6.4389713,13.683 C6.8549713,13.891 7.3149713,14 7.7809713,14 L7.9269713,14 L5.7379713,18.133 C5.0919713,19.354 5.5579713,20.867 6.7779713,21.513 C7.7139713,22.008 8.8599713,21.86 9.6409713,21.143 L18.2669713,13.208 C19.4849713,12.085 19.5639713,10.188 18.4419713,8.968 C17.8749713,8.351 17.0739713,8 16.2349713,8 L15.9269713,8 Z"/>
    <path fill="#08B8FB" d="M8.6249713,20.039 C8.3139713,20.325 7.8529713,20.384 7.4799713,20.188 C7.2439713,20.062 7.0699713,19.853 6.9919713,19.597 C6.9129713,19.342 6.9379713,19.072 7.0629713,18.835 L10.4179713,12.5 L7.7809713,12.5 C7.5489713,12.5 7.3169713,12.445 7.1099713,12.341 C6.7519713,12.163 6.4839713,11.854 6.3569713,11.474 C6.2309713,11.094 6.2599713,10.687 6.4389713,10.329 L9.4389713,4.329 C9.6949713,3.817 10.2089713,3.5 10.7809713,3.5 L14.4269713,3.5 C14.7129713,3.5 14.9899713,3.583 15.2279713,3.742 C15.8899713,4.183 16.0689713,5.082 15.6279713,5.744 L13.1239713,9.5 L16.2349713,9.5 C16.6529713,9.5 17.0559713,9.676 17.3389713,9.984 C17.8979713,10.592 17.8589713,11.543 17.2509713,12.104 L8.6249713,20.039 Z"/>
    <g transform="translate(6 16)">
      <mask id="boost-level-1-light-b" fill="#fff">
        <use xlink:href="#boost-level-1-light-a"/>
      </mask>
      <path fill="#F8FF00" d="M2.6249713,4.039 C2.3139713,4.325 1.8529713,4.384 1.4799713,4.188 C1.2439713,4.062 1.0699713,3.853 0.991971301,3.597 C0.912971301,3.342 0.937971301,3.072 1.0629713,2.835 L4.4179713,-3.5 L1.7809713,-3.5 C1.5489713,-3.5 1.3169713,-3.555 1.1099713,-3.659 C0.751971301,-3.837 0.483971301,-4.146 0.356971301,-4.526 C0.230971301,-4.906 0.259971301,-5.313 0.438971301,-5.671 L3.4389713,-11.671 C3.6949713,-12.183 4.2089713,-12.5 4.7809713,-12.5 L8.4269713,-12.5 C8.7129713,-12.5 8.9899713,-12.417 9.2279713,-12.258 C9.8899713,-11.817 10.0689713,-10.918 9.6279713,-10.256 L7.1239713,-6.5 L10.2349713,-6.5 C10.6529713,-6.5 11.0559713,-6.324 11.3389713,-6.016 C11.8979713,-5.408 11.8589713,-4.457 11.2509713,-3.896 L2.6249713,4.039 Z" mask="url(#boost-level-1-light-b)"/>
    </g>
  </g>
</svg>
