<svg xmlns="http://www.w3.org/2000/svg" width="24" height="24" viewBox="0 0 24 24">
  <path fill="none" stroke="#8A8A8F" stroke-width="1.5" d="M15.0052038,5.81281566 L12,8.81801948 L8.99479618,5.81281566 C8.11611652,4.93413601 6.69149532,4.93413601 5.81281566,5.81281566 C4.93413601,6.69149532 4.93413601,8.11611652 5.81281566,8.99479618 L8.81801948,12 L5.81281566,15.0052038 C4.93413601,15.8838835 4.93413601,17.3085047 5.81281566,18.1871843 C6.69149532,19.065864 8.11611652,19.065864 8.99479618,18.1871843 L12,15.1819805 L15.0052038,18.1871843 C15.8838835,19.065864 17.3085047,19.065864 18.1871843,18.1871843 C19.065864,17.3085047 19.065864,15.8838835 18.1871843,15.0052038 L15.1819805,12 L18.1871843,8.99479618 C19.065864,8.11611652 19.065864,6.69149532 18.1871843,5.81281566 C17.3085047,4.93413601 15.8838835,4.93413601 15.0052038,5.81281566 Z"/>
</svg>
