<svg xmlns="http://www.w3.org/2000/svg" width="24" height="24" viewBox="0 0 24 24">
  <g fill="none" fill-rule="evenodd">
    <polygon points="0 0 24 0 24 24 0 24"/>
    <path stroke="#8A8A8F" stroke-width="1.5" d="M8.98819599,3.99376941 L5.98819599,9.99376941 C5.43247018,11.105221 5.88297496,12.4567354 6.99442658,13.0124612 C7.30685131,13.1686735 7.65135571,13.25 8.00065717,13.25 L9.39223391,13.25 L6.6207954,18.4849394 C6.16858271,19.3391189 6.49444121,20.3981591 7.34862074,20.8503718 C8.00388285,21.1972752 8.80663582,21.0936086 9.35227318,20.5916222 L17.9781182,12.6558448 C18.892616,11.8145068 18.9519238,10.3911206 18.1105858,9.47662281 C17.6845322,9.01352106 17.0840143,8.75 16.454741,8.75 L14.7451674,8.75 L16.4716664,6.16025147 C17.1436538,5.15227039 16.8712771,3.79038686 15.863296,3.11839947 C15.5029735,2.87818444 15.079609,2.75 14.6465552,2.75 L11.0006572,2.75 C10.14842,2.75 9.36932802,3.23150535 8.98819599,3.99376941 Z"/>
  </g>
</svg>
